<svg xmlns="http://www.w3.org/2000/svg" viewBox="0 0 512 512">
  <defs><linearGradient id="g" x1="0" y1="0" x2="0" y2="1">
    <stop offset="0" stop-color="#3a2f6e"/><stop offset="1" stop-color="#1a1438"/></linearGradient></defs>
  <rect width="512" height="512" rx="112" fill="url(#g)"/>
  <g fill="#cdd6ff">
    <rect x="150" y="300" width="46" height="150"/><rect x="316" y="300" width="46" height="150"/>
    <rect x="226" y="230" width="60" height="220"/>
  </g>
  <g fill="#6d7adf">
    <path d="M150 300 L173 250 L196 300 Z"/><path d="M316 300 L339 250 L362 300 Z"/>
    <path d="M226 230 L256 160 L286 230 Z"/>
  </g>
  <g fill="#ffd86b"><circle cx="256" cy="120" r="10"/>
    <path d="M256 120 l8 22 23 1 -18 15 7 22 -20 -13 -20 13 7 -22 -18 -15 23 -1 z"/></g>
  <g fill="#ffe39c"><rect x="244" y="300" width="24" height="40" rx="12"/></g>
</svg>
