<svg xmlns="http://www.w3.org/2000/svg" viewBox="0 0 600 600" fill="none">
  <!-- PLACEHOLDER prop — replace, keep anim- names. -->
  <g id="anim-burst" stroke-width="4" fill="none">
    <g stroke="#ffd24a">
      <line x1="180" y1="180" x2="180" y2="110"/><line x1="180" y1="180" x2="180" y2="250"/>
      <line x1="180" y1="180" x2="110" y2="180"/><line x1="180" y1="180" x2="250" y2="180"/>
      <line x1="180" y1="180" x2="130" y2="130"/><line x1="180" y1="180" x2="230" y2="230"/>
      <line x1="180" y1="180" x2="230" y2="130"/><line x1="180" y1="180" x2="130" y2="230"/>
    </g>
  </g>
  <g id="anim-burst" stroke-width="4" fill="none">
    <g stroke="#ff5fa2">
      <line x1="430" y1="240" x2="430" y2="180"/><line x1="430" y1="240" x2="430" y2="300"/>
      <line x1="430" y1="240" x2="370" y2="240"/><line x1="430" y1="240" x2="490" y2="240"/>
      <line x1="430" y1="240" x2="388" y2="198"/><line x1="430" y1="240" x2="472" y2="282"/>
      <line x1="430" y1="240" x2="472" y2="198"/><line x1="430" y1="240" x2="388" y2="282"/>
    </g>
  </g>
  <g id="anim-burst" stroke-width="3" fill="none">
    <g stroke="#7be0ff">
      <line x1="300" y1="120" x2="300" y2="80"/><line x1="300" y1="120" x2="300" y2="160"/>
      <line x1="300" y1="120" x2="260" y2="120"/><line x1="300" y1="120" x2="340" y2="120"/>
    </g>
  </g>
</svg>
