<svg xmlns="http://www.w3.org/2000/svg" viewBox="0 0 360 900" fill="none">
  <!-- Main Street, U.S.A. — RIGHT row. Mirror of the left; hugs the right edge and
       steps DOWN toward the center. Keep the left ~third transparent for the castle.
       Placeholder — replace, keep the anim-lamp group. -->
  <path d="M360 900 L360 175 L240 150 L240 300 L150 300 L150 470 L100 470 L100 900 Z" fill="#ecdcc6"/>
  <g fill="#d8c3a0">
    <rect x="238" y="300" width="14" height="600"/>
    <rect x="148" y="470" width="14" height="430"/>
  </g>
  <g fill="#c98a3a">
    <rect x="236" y="150" width="128" height="26"/>
    <rect x="146" y="300" width="104" height="22"/>
    <rect x="96" y="470" width="64" height="20"/>
  </g>
  <path d="M236 150 L300 96 L364 150 Z" fill="#b9543a"/>
  <g fill="#ffdf9e">
    <rect x="256" y="206" width="34" height="50" rx="9"/><rect x="306" y="206" width="34" height="50" rx="9"/>
    <rect x="256" y="300" width="34" height="50" rx="9"/><rect x="306" y="300" width="34" height="50" rx="9"/>
    <rect x="256" y="394" width="34" height="50" rx="9"/><rect x="306" y="394" width="34" height="50" rx="9"/>
    <rect x="158" y="350" width="30" height="46" rx="9"/><rect x="196" y="350" width="30" height="46" rx="9"/>
    <rect x="158" y="430" width="30" height="46" rx="9"/><rect x="196" y="430" width="30" height="46" rx="9"/>
    <rect x="112" y="520" width="28" height="44" rx="9"/>
  </g>
  <g fill="#9a6b3f">
    <rect x="270" y="760" width="58" height="140" rx="12"/>
    <rect x="172" y="784" width="50" height="116" rx="12"/>
  </g>
  <g id="anim-lamp" fill="#ffcf6b">
    <circle cx="112" cy="640" r="9"/><circle cx="240" cy="612" r="9"/><circle cx="340" cy="560" r="9"/>
  </g>
</svg>
