<?xml version="1.0" encoding="UTF-8"?><svg id="Layer_1" xmlns="http://www.w3.org/2000/svg" viewBox="0 0 119.14 665.82"><g id="_5B886m.tif"><path d="M119.14,81.2v584.62H0V0h119.14v77.14c-3.61-1.67-22.29-5.17-23.27-5.86-7.41-5.19-2.4-13.98-2.99-14.43-1.13-.85-7.37,1.02-9.96-.24-.67-.33.17-5.77-.15-5.88-1.19-.41-4.27,4.02-8.05,4.07-.7-2.08-.92-4.05-2.02-6.09-4.01-7.43-.64-3.8-8.08-6.09.91-3.11-2.15-4.59-4.04-6.09-.73-.58-1.29-1.43-2.02-2.03,9.91-16.67,1.18-3.63.22-11.3-.27-2.18,2.13-6.08,1.8-6.97-.94-2.52-1.98-1.89-2.02-2.03-.21-.66.25-1.54,0-2.03-3.1-5.97-2.54-9.89-6.06,0-3.09,8.69,2.24,9.2,2.01,12.13-.07.93-10.48.27-2.01,14.26-4.59,1.02-15.48,2.47-14.14,8.12v2.03c-4.52.33-8.46,1.37-12.12,4.06-4.25,3.13-7.35,6.37,0,6.09.06.67-.07,1.36,0,2.03.26,2.41,1.98,1.89,2.02,2.03.16.6-.06,1.38,0,2.03.13,1.33-.09,2.72,0,4.06-.9.41-2.97-.38-4.04,0-4.87,1.74-29.03,5.99-22.2,16.23.32.48,3.69-.4,4.03,0,.3.37,3.31-.52,6.06,4.06,4.29,7.15,2.46,29.74,12.12,34.51.63,2.62.2,7.09,2.02,12.18l4.04,18.27c-.35.28-4.71,6.77-4.02,8.11,2.94.9,8.22-2.34,10.08-2.02.64.11,1.36-.06,2.02,0,1.99,6.79-.9,16.65,8.08,14.21,1.07,5.16,2.21,8.59,2.02,14.21-.02.66-5.12-2.94-5.67,9.17-.2,4.35,3.53,8.5,3.65,11.13.22,4.55,1.94,8.6,2.02,10.15.04.67-.03,1.36,0,2.03.37,7.38-.48,14.96,0,22.33-3.75,14.63-2,31.56-2.02,46.69-.03,20.92.51,42.03,0,62.93,0,.4-6,3.44-6.04,5.11-.12,4.94,4.03,2.73,4.02,3.01-.03,1.35.03,2.71,0,4.06-.07,2.94-1.85,7.5-2.02,14.21-.04,1.57,2.03,3.66,2.02,4.06-.28,11.46.3,23.05,0,34.51-.44,16.7-1.49,33.92-2.02,50.75-.11,3.38.06,5.86,0,8.12-.31,12.26-3.05,27.75-2.02,38.57.32,3.33-.22,6.8,0,10.15-7.19,1.22-6.87,2.39-12.12,6.09-1.2.85-1.4,3.34-2.02,4.06-4.89,5.68-16.94,3.4,0,14.21.9.57,2.02,3.63,4.04,4.06-.33.96.18,2.76,0,4.06-1.83,13.35,1.92,31-2.02,44.66-3.09,10.69-16.9,13.25-8.08,24.36-12.14,5.17-14.8,19.16-6.06,28.42,8.47,8.97,34.94,6.38,46.44,6.09,3.33-.08,6.79.29,10.1,0,6.12-.54,9.92-.66,16.15-2.03,4.64-1.02,8.01-.2,12.12-4.06.66-.62,1.56-.63,2.02-2.03.17-.51.01-1.44,0-2.03,7.82-12.74-2.45-20.69-6.06-30.45-2.86-7.73-3.93-5.74-4.04-6.09-4.94-16.53-9.1-35.36-8.08-52.78.21-3.6,2.82-8.01,2.02-12.18.67-.19,1.51.23,2.02,0,12.98-5.93,2.77-11.28-2.02-16.24-1.28-1.33-2.54-3-4.04-4.06-.43-.3-1.45.28-2.02,0-.37-.81-1.18-1.94-2.02-2.03-1.21-.13-2.84-.15-4.04,0,.03-2.03-.05-4.06,0-6.09s.07-4.07,0-6.09c-.41-12.22-3.45-24.24-4.04-36.54-.04-.93,2.1-3.89,2.02-6.09-.09-2.32-1.99-4.94-2.02-6.09-.83-28.34.88-56.92,0-85.26-.04-1.35.04-2.71,0-4.06-.1-3.12-2.01-5.72-2.02-6.09-.06-2.03.06-4.06,0-6.09-.35-12.13-2-7.54-2.02-8.12-.24-7.94,2.41-20.21,2.02-30.45l-4.04-105.56c.05-.67-.06-1.36,0-2.03.05-.58,1.11,2.9,2.42-8.51.35-3.06,7.62-12.1,7.65-12.85.23-5.83-5.65-1.83-6.05-3.01-.49-1.44,3.19-3.16-1.99-10.14,2.38-3.11,1.51-6.74,2.02-10.15.1-.66-.14-1.39,0-2.03,10.47,4.49,4.1-.85,6.06-6.09,3.7-.46,9.17-7.25,10.07-6.09.42.53-.41,16.63,5.1,6.1,2.03-3.87-3.73-9.03-3.06-14.22.46-3.54,3.12-10.36,4.04-16.24.29-1.88,3.12-7.13,4.04-12.18.12-.65-.12-1.38,0-2.03l4.04-18.27c.77-3.36,2.82,2.45,2.02-6.09-.07-.71.17-1.53,0-2.03,3.38-2.86,4.71-7.26,8.08-10.15.52-.45,10.9-4.88,12.12-4.06Z" fill="#fbfbfb"/><path d="M74.71,54.81c3.78-.05,6.87-4.48,8.05-4.07.32.11-.53,5.55.15,5.88,2.59,1.27,8.84-.61,9.96.24.59.44-4.43,9.24,2.99,14.43.98.69,19.66,4.19,23.27,5.86v4.06c-1.22-.82-11.59,3.61-12.12,4.06.09-1.34-.13-2.73,0-4.06.35-3.47-24.51-13.37-28.27-8.12-.05-.64-3.23-9.49-4.04-12.18-.49-1.6.51-4.58,0-6.09Z" fill="#a4a49f"/><path d="M58.56,223.29v10.15c0,.68,0,1.35,0,2.03,0,38.15-1.39,83.85.12,120.94.26,6.38,3.76,1.97,5.94.86.02.58,1.67-4.01,2.02,8.12-5.7-1.45-12.05,6.64-12.12,12.18,2.02-.01,4.04,0,6.06,0,.14.5,1.46,1.32,2.02,2.03l4.04,87.29c-.96,3.75-4.79,3.21-6.06,4.06,1.08-28.53-.55-56.82-2.02-85.26-.26-5.01-4.1-2.98-4.04-8.12-6.01.04-6.19-.33-8.08,6.09h-2.02c0-.4-2.06-2.49-2.02-4.06,1.35-1.26,2.5-3.03,4.04-4.06,4.89-3.28,9.31-4.84,0-8.12-.57-.2-1.27-1.58-2.02-2.03.03-1.35-.03-2.71,0-4.06,7.73-2.56,13.79-4.05,2.02-8.12.51-20.9-.03-42.01,0-62.93,6.11,1.15,3.89-3.11,4.04-7,.53-13.71-1.14-26.23-2.02-39.69-.48-7.37.37-14.94,0-22.33,3.08,1.78,6.58,2.43,10.1,2.03Z" fill="#4b4740"/><path d="M70.68,550.11c2-.12,4.07.19,6.06,0,.67-.06,1.36.08,2.02,0,1.52,7.68-7.5,2.52-10.09,4.08-1.22.73,7.39,8.64-6.05,6.1-.39,4.49,5.62-.57,6.05,4.03-15.18,5.94-5.21,33.98-16.15,46.69-2.53-.58-12.12-.44-12.12-5.07v-30.45c0-6.88-1.68-18.54-10.1-17.25.18-1.3-.33-3.1,0-4.06,1.77-5.22,22.86-5.61,32.31-6.09,1.09-.05,4.84,2.23,8.08,2.03Z" fill="#3a362e"/><path d="M82.79,562.29c-1.03,17.42,3.14,36.25,8.08,52.78-6.71,16.16-9.69-.55-12.12-4.06-3.62-28.93-10.37-42.49-12.12-2.03-1.37,2.67-2.6,5.35-4.04,8.12-1.92.21-2.27-2.72-2.02-4.06,1.81-9.65,8.76-41.37,8.08-48.72,2.6-1.02,10.46.42,14.14-2.03Z" fill="#796f60"/><path d="M74.71,113.68c7.8.26,2.9-20.1,6.08-22.33.78-.55,17.15,1.31,18.15,6.09.8,8.54-1.25,2.73-2.02,6.09-1.55,6.75-2.7,11.17-4.04,18.27-.12.65.12,1.38,0,2.03-7.08-1.62-5.29,9.71-6.06,12.18-.49,1.56-3.64.35-4.04,8.12-2.36,6.03-6.33,3.28-10.1,4.06.27-1.9-.4-4.37,0-6.09.62-2.64,1.52-3.75,2.02-8.12.62-5.48,2.13-10.76,0-16.24.05-1.35-.07-2.71,0-4.06Z" fill="#efe194"/><path d="M30.29,558.23c8.42-1.29,10.1,10.37,10.1,17.25v30.45c0,4.63,9.58,4.5,12.12,5.07,1.95.45,4.68,3.39,8.08,2.03-.25,1.34.1,4.27,2.02,4.06-.28.53.29,1.52,0,2.03-23.7,7.19-21.66-2.9-34.33-16.24,3.94-13.66.19-31.31,2.02-44.66Z" fill="#655f56"/><path d="M30.29,643.49c9.1,1.93,17.12,2.79,26.25,4.06.66.09,1.36-.1,2.02,0l2.02,14.21c-11.5.29-37.98,2.88-46.44-6.09l8.08-12.18c2.09.6,5.73-.5,8.08,0Z" fill="#3a362e"/><path d="M66.64,326.82c.39,10.24-2.26,22.51-2.02,30.45-2.18,1.12-5.68,5.53-5.94-.86-1.51-37.09-.11-82.79-.12-120.94l2.02-2.03c4.22,30.56,4.88,62.44,6.06,93.38Z" fill="#bca683"/><path d="M52.5,418.17c.45,7.93,1.96,19.65,2.02,26.39.12,13.42,1.64,14.86-4.04,24.36h-8.08c.52-16.83,1.58-34.04,2.02-50.75h8.08Z" fill="#4b4740"/><path d="M70.68,472.97c.08,2.2-2.06,5.16-2.02,6.09-1.33.09-2.71-.13-4.04,0-8.63.85-2.01,19.4-4.04,28.42-.16.71.23,1.57,0,2.03-.62,1.22-.22,1.45-2.02,2.03-1.93.62-5.72-.43-8.08,0-7.54-5.84-.24-19.82-2.29-31.21-.58-3.21-5.75-2.97-5.79-3.3-.39-3.24,5.87-1.8,8.08-2.03,2.64-.27,5.41.15,8.08,0,4.18-.23,8.16-.56,12.12-2.03Z" fill="#4b4740"/><path d="M38.37,48.72c9.54-.69,15.98,4.29,30.29,0,1.07-.32,2.79.22,4.04,0,1.1,2.04,1.32,4.01,2.02,6.09-12.85.16-48.95-5.98-42.41,10.15,12.17,0,33.8,3.33,42.41-4.06.81,2.69,3.98,11.54,4.04,12.18.03.3,1.99,1.23,2.02,2.03-12.15-1.15-43.05-1.7-54.52,0l-2.02-6.09c1.07-.38,3.14.41,4.04,0,2.15-.98,5.05,2.4,4.04-4.06h-4.04c-.06-.65.16-1.43,0-2.03l-2.02-2.03c-.07-.67.06-1.36,0-2.03-.03-.39,3.23-3.48,0-6.09,3.65-2.69,7.6-3.73,12.12-4.06Z" fill="#808284"/><path d="M66.64,379.6c.5.13,1.26,1.61,2.02,2.03.88,28.34-.83,56.92,0,85.26h-2.02l-4.04-87.29c.3.38,2.88-.3,4.04,0Z" fill="#796f60"/><path d="M62.6,619.13c-1.69,2.98-1.66,6.17-6.06,8.12-11.65.48-22.88-2.82-34.33,0-.68.17-1.5-.22-2.02,0-8.83-11.11,4.99-13.67,8.08-24.36,12.67,13.34,10.63,23.43,34.33,16.24Z" fill="#808284"/><path d="M28.27,93.38c-.15,1.1-.19,2.99,0,4.06,1.06,6.02,3.07,11.19,4.04,18.27.22,1.64.13,3.32,2.02,4.06.51,6.76-1.53,13.88,2.02,20.3v2.03h-6.06c-1.05-2.63-3.67-5.06-4.04-6.09-1.82-5.09-1.39-9.56-2.02-12.18-2.94-12.2-15.93-42.23,4.04-30.45Z" fill="#efe194"/><path d="M56.54,156.3c1.3-.19,2.75.2,4.04,0-3.36,23.64,10.47-6.43,8.08,10.15-.05.32-1.5,3.77-2.02,6.09-.14.64.1,1.37,0,2.03-9.49,8.26-2.33-.35-10.09.02-.78,2,2.03,3.82,2.01,4.04-.35,3.45-2,11.29-2.02,12.18l-8.08-2.03c.19-5.62-.95-9.05-2.02-14.21-.88-4.23-2.18-8.3-4.04-12.18,3.32.1,12.58,6.59,6.06-4.06,1.26-.15,4.84-1.54,8.08-2.03Z" fill="#3a362e"/><path d="M26.25,75.11c11.47-1.7,42.37-1.15,54.52,0,.04,1.05-2,5.04-2.02,8.12-.03,3.85-1.46,13.51-2.02,18.27-.81-.34-1.94-1.21-2.02-2.03-.38-3.8.72-19.59.01-20.31-1.66-1.69-41.17-2.89-44.44,6.1-.35.95.24,2.79,0,4.06-5.47-13.65-9.48-6.23-18.17,0-2.75-4.58-5.76-3.69-6.06-4.06,4.79-2.75,15.4-9.44,20.19-10.15Z" fill="#3a362e"/><path d="M62.6,639.43c5.48.62,5.69,4.02,6.06,4.06,1.72.19,6.78,1.52,10.1,2.03l8.08,14.21c-6.24,1.37-10.04,1.49-16.15,2.03-.56-2.86.81-13.25,0-14.22-.37-.44-6.37.27-8.09.01,2.45-8.59-5.42-6.97-6.06,0-9.13-1.27-17.15-2.13-26.25-4.06.61-.62,1.25-1.7,2.02-2.03,6.44-2.8,23.09-2.84,30.29-2.03Z" fill="#655f56"/><path d="M70.68,541.99v2.03c-5,.39-9.35-2.17-8.08,4.06-9.45.47-30.53.87-32.31,6.09-2.02-.43-3.14-3.49-4.04-4.06l4.04-10.15c5.01.88,35.56,2.63,40.39,2.03Z" fill="#655f56"/><path d="M50.48,513.57c2.62-.13,5.47-.18,8.08,0,2.14.15,7.48,4.83,10.1,0,.86.65,3.08.74,4.04,2.03.07,2.02.05,4.07,0,6.09-7.14-2.14-14.16,5.83-16.15,6.09-5.72.74-13.89-2.42-16.15-2.03-.22-3.35.32-6.82,0-10.15,3.37.29,7.15-1.88,10.1-2.03Z" fill="#4b4740"/><path d="M48.46,188.78l8.08,2.03c-.13,5.89,6.07,16.9,0,28.42h-4.04c.54-5.26.19-10.32-6.06-10.15-.13-2.63-3.85-6.78-3.65-11.13.55-12.11,5.65-8.51,5.67-9.17Z" fill="#4b4740"/><path d="M58.56,178.63c.16,4.94,5.8,5.74,6.06,6.09,5.19,6.98,1.51,8.7,1.99,10.14.4,1.18,6.28-2.82,6.05,3.01-.03.75-7.29,9.79-7.65,12.85-1.31,11.41-2.36,7.93-2.42,8.51h-6.06c6.07-11.52-.13-22.53,0-28.42.02-.88,1.67-8.73,2.02-12.18Z" fill="#90836e"/><path d="M94.91,621.16c3.61,9.75,13.87,17.71,6.06,30.45-.19-7.64-2.99-7.63-8.08-8.12.26-1.19-.4-3.35,0-4.06.56-1.01,4.31-1.64,4.04-4.04-4.89.04-9.13,2.27-14.13,2.01-4.05-.22-9.28-2.02-10.1-2.03,6.18-2.31,28.51-3.04,14.14-10.15,1.07-.47,3.3-5.92,8.08-4.06Z" fill="#90836e"/><path d="M62.6,221.26l4.04,105.56c-1.18-30.94-1.84-62.82-6.06-93.38h-2.02v-10.15c1.1-.12,2.75-1.64,4.04-2.03Z" fill="#a4a49f"/><path d="M107.02,81.2c-.13,1.33.09,2.72,0,4.06-3.37,2.89-4.7,7.28-8.08,10.15-.61-1.75.64-7.64.01-8.13-1.54-1.19-16.26,2.4-20.2-4.05.02-3.08,2.06-7.07,2.02-8.12,9.11.86,17.24,4.97,26.25,6.09Z" fill="#796f60"/><path d="M36.35,531.84c1.86-.16,4.21-.19,6.06,0-.8,8,3.05,2.06,4.04,2.03,4.03-.13,8.09.15,12.12,0-2.03,6.58,10.09,3.98,16.15,4.06.67,0,1.35.03,2.02,0-1.04,3.21-3.06,3.69-6.06,4.06-4.82.6-35.37-1.15-40.39-2.03-.8-.14-2.9-3.25-4.04-4.06.62-.72.81-3.21,2.02-4.06,2.22,5.09,6.84.11,8.08,0Z" fill="#a4a49f"/><path d="M92.89,643.49c5.09.49,7.89.48,8.08,8.12.01.59.17,1.52,0,2.03l-2.02,2.03c-4.11,3.86-7.47,3.04-12.12,4.06l-8.08-14.21c5.33.81,10.07-2.12,12.12-2.03.67.03,1.36-.06,2.02,0Z" fill="#796f60"/><path d="M42.41,477.03c.04.33,5.21.09,5.79,3.3,2.05,11.39-5.25,25.37,2.29,31.21v2.03c-2.95.15-6.73,2.32-10.1,2.03-1.03-10.82,1.71-26.31,2.02-38.57Z" fill="#655f56"/><path d="M46.44,383.66c-1.66,7.85,5.63,1.3,6.04,2.03,1.08,1.97-.3,26.72.02,32.48h-8.08c.3-11.46-.28-23.04,0-34.51h2.02Z" fill="#655f56"/><path d="M30.29,89.32c-.12.61-.01,1.39,0,2.03-.4.75-1.96,1.62-2.02,2.03-19.97-11.78-6.98,18.25-4.04,30.45-9.66-4.77-7.82-27.36-12.12-34.51,8.7-6.23,12.7-13.65,18.17,0Z" fill="#796f60"/><path d="M58.56,12.18c.25.49-.21,1.37,0,2.03l2.02,2.03c.33.89-2.08,4.79-1.8,6.97.96,7.67,9.69-5.37-.22,11.3-.4.67.27,2.87,0,4.06-.65.12-1.36-.09-2.02,0-1.28.18-2.85-.27-4.04,0-8.47-13.99,1.94-13.33,2.01-14.26.22-2.93-5.1-3.44-2.01-12.13h6.06Z" fill="#655f56"/><path d="M22.21,627.25l2.02,6.09c-8.28.3-15.94,6.16-2.02,10.15l-8.08,12.18c-8.74-9.25-6.08-23.25,6.06-28.42.52-.22,1.34.17,2.02,0Z" fill="#655f56"/><path d="M78.75,83.23c3.95,6.45,18.67,2.87,20.2,4.05.63.49-.62,6.38-.01,8.13.17.5-.07,1.32,0,2.03-1.01-4.78-17.37-6.64-18.15-6.09-3.18,2.23,1.72,22.59-6.08,22.33.24-4.73,1.55-8.15,2.02-12.18.55-4.75,1.99-14.42,2.02-18.27Z" fill="#bca683"/><path d="M24.23,69.02l2.02,6.09c-4.8.71-15.4,7.4-20.19,10.15-.34-.41-3.71.47-4.03,0-6.82-10.24,17.33-14.49,22.2-16.23Z" fill="#a4a49f"/><path d="M68.66,479.06c.59,12.3,3.63,24.32,4.04,36.54-.96-1.29-3.17-1.38-4.04-2.03-2.26-1.71-2.83-5.39-8.08-4.06.23-.46-.16-1.32,0-2.03,11.99-1.23.9-19.49,4.04-28.42,1.32-.13,2.71.09,4.04,0Z" fill="#90836e"/><path d="M48.46,243.59c.89,13.46,2.56,25.98,2.02,39.69-.15,3.89,2.07,8.14-4.04,7,.02-15.13-1.73-32.06,2.02-46.69Z" fill="#808284"/><path d="M84.81,550.11c.8,4.17-1.81,8.58-2.02,12.18-3.68,2.45-11.53,1.01-14.14,2.03.69,7.35-6.27,39.07-8.08,48.72-3.4,1.36-6.12-1.58-8.08-2.03,10.94-12.7.98-40.75,16.15-46.69-.43-4.6-6.44.45-6.05-4.03,13.44,2.55,4.84-5.36,6.05-6.1,2.59-1.56,11.61,3.6,10.09-4.08,1.89-.24,4.54.44,6.06,0Z" fill="#4b4740"/><path d="M62.6,647.55c1.71.25,7.72-.46,8.09-.01.8.97-.57,11.36,0,14.22-3.3.29-6.76-.08-10.1,0l-2.02-14.21c1.3.2,2.74-.19,4.04,0Z" fill="#4b4740"/><path d="M86.83,550.11c-.46-.76-1.81-1.44-2.02-2.03-2.49-6.87-1.57-3.53-10.1-4.06-1.3-.08-2.74-.1-4.04,0v-2.03c3-.37,5.02-.85,6.06-4.06,1.33-.06,2.73.15,4.04,0,3.83-.44,4.63,1.51,4.04-4.06,4.79,4.96,15,10.31,2.02,16.24Z" fill="#90836e"/><path d="M84.81,152.24c-.67,5.19,5.09,10.35,3.06,14.22-5.51,10.53-4.69-5.57-5.1-6.1-.9-1.16-6.37,5.63-10.07,6.09-1.96,5.24,4.41,10.58-6.06,6.09.52-2.32,1.97-5.77,2.02-6.09,1.33-.11,2.73.16,4.04,0,1.01-2.69,1.46-9.24,2.02-10.15.24-.39,6.88-1.91,8.08-4.06h2.02Z" fill="#a4a49f"/><path d="M64.62,42.63c7.44,2.29,4.06-1.34,8.08,6.09-1.25.22-2.97-.32-4.04,0-9.48.17-16.89.79-26.25-2.03,3.6-5.38,20.63,1.36,22.21-4.06-2.78-.86-6.71.89-8.08-4.06.66-.09,1.37.12,2.02,0,.81-.15,1.59-1.28,2.02-2.03,1.88,1.49,4.94,2.98,4.04,6.09Z" fill="#a4a49f"/><path d="M26.25,535.9c1.14.81,3.24,3.92,4.04,4.06l-4.04,10.15c-16.94-10.81-4.89-8.53,0-14.21Z" fill="#808284"/><path d="M52.5,38.57c1.19-.27,2.76.18,4.04,0,1.36,4.95,5.29,3.2,8.08,4.06-1.58,5.42-18.61-1.32-22.21,4.06-1.07-.32-2.79.22-4.04,0-1.34-5.65,9.55-7.1,14.14-8.12Z" fill="#808284"/><path d="M40.39,525.75c2.26-.39,10.43,2.77,16.15,2.03v2.03c-6.35.24-14.88-1.88-20.19,2.03-1.24.11-5.85,5.09-8.08,0,5.25-3.7,4.93-4.87,12.12-6.09Z" fill="#808284"/><path d="M72.69,521.69c-.05,2.03.03,4.06,0,6.09-3.04.39-5.52,1.84-10.1,2.03-2.01.08-4.04-.08-6.06,0v-2.03c2-.26,9.01-8.23,16.15-6.09Z" fill="#bca683"/><path d="M76.73,527.78c.63.63,1.25,1.65,2.02,2.03.57.28,1.59-.3,2.02,0v8.12c-1.31.15-2.71-.06-4.04,0-.67.03-1.35,0-2.02,0,1.92-11.07-5.96-4.23-12.12-4.06v-4.06c4.57-.19,7.06-1.64,10.1-2.03,1.2-.15,2.83-.13,4.04,0Z" fill="#655f56"/><path d="M38.37,152.24v6.09c-.8.15-1.59,1.28-2.02,2.03-1.86-.33-7.14,2.92-10.08,2.02-.68-1.34,3.67-7.83,4.02-8.11.18-.14,3.8-1.95,4.04-2.03,1.05-.33,2.8.23,4.04,0Z" fill="#808284"/><path d="M92.89,121.8c1.34-7.1,2.49-11.52,4.04-18.27l-4.04,18.27Z" fill="#90836e"/><path d="M66.64,371.48c.01.37,1.92,2.97,2.02,6.09l-2.02,2.03c-1.16-.3-3.74.38-4.04,0-.56-.71-1.88-1.53-2.02-2.03-1.65-5.9,2.84-14.73,6.06-6.09Z" fill="#a4a49f"/><path d="M84.81,152.24h-2.02c.09-2.7-.14-5.43,0-8.12.4-7.77,3.55-6.56,4.04-8.12h2.02c-.92,5.88-3.58,12.7-4.04,16.24Z" fill="#796f60"/><path d="M42.41,46.69c9.36,2.82,16.78,2.2,26.25,2.03-14.31,4.29-20.75-.69-30.29,0v-2.03c1.25.22,2.97-.32,4.04,0Z" fill="#796f60"/><path d="M42.41,162.39c1.86,3.88,3.16,7.95,4.04,12.18-8.98,2.44-6.09-7.42-8.08-14.21,3.26.27,3.81,2.02,4.04,2.03Z" fill="#655f56"/><path d="M30.29,142.1c1.29,3.22.74,7.57,4.04,10.15-.24.08-3.86,1.89-4.04,2.03l-4.04-18.27c.37,1.02,2.99,3.46,4.04,6.09Z" fill="#796f60"/><path d="M46.44,353.21c11.77,4.07,5.71,5.56-2.02,8.12,0-.28-4.14,1.93-4.02-3.01.04-1.67,6.03-4.71,6.04-5.11Z" fill="#808284"/><path d="M50.48,468.91c-.53.88.36,4.48,0,6.09-2.21.23-8.47-1.21-8.08,2.03.06-2.26-.11-4.74,0-8.12h8.08Z" fill="#796f60"/><path d="M68.66,466.88c.03,1.14,1.93,3.77,2.02,6.09-3.96,1.47-7.93,1.8-12.12,2.03-.26-2.14.31-2.92,2.02-4.06,1.27-.85,5.1-.31,6.06-4.06h2.02Z" fill="#808284"/><path d="M46.44,367.42v8.12c-1.54,1.03-2.69,2.8-4.04,4.06.16-6.71,1.95-11.27,2.02-14.21.75.45,1.45,1.83,2.02,2.03Z" fill="#808284"/><path d="M40.39,158.33c1.32-.1,2.75.2,4.04,0s2.73.15,4.04,0c6.52,10.65-2.73,4.16-6.06,4.06-.23,0-.78-1.76-4.04-2.03-.66-.06-1.38.11-2.02,0,.43-.75,1.21-1.88,2.02-2.03.64-.12,1.36.05,2.02,0Z" fill="#a4a49f"/><path d="M52.5,219.23h-4.04c-.08-1.55-1.8-5.6-2.02-10.15,6.25-.17,6.6,4.89,6.06,10.15Z" fill="#655f56"/><path d="M92.89,123.83c-.91,5.05-3.74,10.3-4.04,12.18h-2.02c.77-2.47-1.02-13.8,6.06-12.18Z" fill="#90836e"/><path d="M52.5,219.23h10.1c-.06.67.05,1.36,0,2.03-1.29.39-2.94,1.91-4.04,2.03-3.51.4-7.02-.25-10.1-2.03-.03-.67.04-1.36,0-2.03h4.04Z" fill="#3a362e"/><path d="M58.56,178.63c.02-.22-2.79-2.04-2.01-4.04,7.76-.37.6,8.24,10.09-.02-.51,3.41.36,7.04-2.02,10.15-.26-.35-5.9-1.15-6.06-6.09Z" fill="#655f56"/><path d="M58.56,12.18h-6.06c3.52-9.89,2.96-5.97,6.06,0Z" fill="#808284"/><path d="M78.75,611.01c2.42,3.51,5.41,20.22,12.12,4.06.1.35,1.18-1.64,4.04,6.09-4.78-1.86-7,3.59-8.08,4.06-.87.38-2.81-.29-4.04,0-1.06.25-1.85,2.01-2.02,2.03-7.11,1.02-16.6-.31-24.23,0,4.4-1.95,4.37-5.14,6.06-8.12.29-.51-.28-1.49,0-2.03,1.44-2.77,2.67-5.45,4.04-8.12,8.06-15.66,3.42-10.56,12.12,2.03Z" fill="#a4a49f"/><path d="M26.25,58.87c-7.35.28-4.25-2.96,0-6.09,3.23,2.61-.03,5.7,0,6.09Z" fill="#a4a49f"/><path d="M66.64,365.39c.06,2.03-.06,4.06,0,6.09-3.22-8.64-7.71.19-6.06,6.09-2.02,0-4.04-.01-6.06,0,.07-5.54,6.42-13.63,12.12-12.18Z" fill="#90836e"/><path d="M84.81,533.87c.59,5.57-.21,3.62-4.04,4.06v-8.12c1.5,1.06,2.75,2.73,4.04,4.06Z" fill="#796f60"/><path d="M32.31,64.96c1.01,6.46-1.89,3.08-4.04,4.06-.09-1.34.13-2.73,0-4.06h4.04Z" fill="#a4a49f"/><path d="M68.66,381.63c-.76-.42-1.52-1.9-2.02-2.03l2.02-2.03c.04,1.35-.04,2.71,0,4.06Z" fill="#4b4740"/><path d="M60.58,36.54c-.43.75-1.21,1.88-2.02,2.03.27-1.18-.4-3.39,0-4.06.72.6,1.29,1.45,2.02,2.03Z" fill="#808284"/><path d="M28.27,62.93c-.04-.14-1.76.38-2.02-2.03l2.02,2.03Z" fill="#a4a49f"/><path d="M78.75,529.81c-.77-.38-1.39-1.4-2.02-2.03.84.09,1.65,1.22,2.02,2.03Z" fill="#796f60"/><path d="M86.83,550.11c-.51.23-1.35-.19-2.02,0v-2.03c.21.59,1.56,1.27,2.02,2.03Z" fill="#655f56"/><path d="M60.58,16.24l-2.02-2.03c.04.14,1.08-.49,2.02,2.03Z" fill="#808284"/><path d="M98.95,655.67l2.02-2.03c-.46,1.4-1.36,1.41-2.02,2.03Z" fill="#90836e"/><path d="M74.71,54.81c.51,1.51-.49,4.49,0,6.09-8.6,7.39-30.24,4.06-42.41,4.06-6.54-16.13,29.55-9.99,42.41-10.15Z" fill="#3a362e"/><path d="M78.75,73.08c3.76-5.25,28.62,4.65,28.27,8.12-9.01-1.12-17.14-5.23-26.25-6.09-.03-.8-1.99-1.73-2.02-2.03Z" fill="#fbfbfb"/><path d="M54.52,377.57c-.06,5.14,3.78,3.11,4.04,8.12l-2.02,83.23v-81.2l-2.02,56.84c-.06-6.74-1.57-18.46-2.02-26.39-.33-5.75,1.06-30.5-.02-32.48-.4-.74-7.69,5.82-6.04-2.03,1.89-6.42,2.07-6.05,8.08-6.09Z" fill="#3a362e"/><path d="M46.44,367.42c9.31,3.28,4.89,4.84,0,8.12v-8.12Z" fill="#796f60"/><path d="M58.56,235.47c0-.68,0-1.35,0-2.03h2.02l-2.02,2.03Z" fill="#90836e"/><path d="M70.68,544.02c1.3-.1,2.74-.08,4.04,0v4.06c-1.68-.02-4.14-.26-4.04,2.03-3.24.2-6.99-2.08-8.08-2.03-1.27-6.23,3.07-3.67,8.08-4.06Z" fill="#bca683"/><path d="M74.71,544.02c8.53.53,7.6-2.81,10.1,4.06v2.03c-1.52.44-4.16-.24-6.06,0-.66.08-1.35-.06-2.02,0,.23-1.44-.77-2.02-2.02-2.03v-4.06Z" fill="#efe194"/><path d="M74.71,548.08c1.25.01,2.25.59,2.02,2.03-1.99.19-4.06-.12-6.06,0-.1-2.29,2.36-2.05,4.04-2.03Z" fill="#655f56"/><path d="M78.75,611.01c-8.69-12.59-4.05-17.69-12.12-2.03,1.75-40.46,8.5-26.9,12.12,2.03Z" fill="#bca683"/><path d="M74.71,117.74c2.13,5.48.62,10.76,0,16.24l-2.02,8.12c-.4,1.72.27,4.19,0,6.09-.65.13-1.38-.15-2.02,0s-1.38-.15-2.02,0v-2.03c0-1.35,0-2.71,0-4.06-.02-7.37,1.28-11.73,2.02-18.27.08-.67-.08-1.36,0-2.03.5-4.26,1.63-7.38,2.02-10.15-1.24,3.16,1.55,4.89,2.02,6.09Z" fill="#796f60"/><path d="M82.79,152.24c-1.19,2.15-7.84,3.67-8.08,4.06l-4.04-8.12c.63-.15,1.37.13,2.02,0,3.77-.78,7.74,1.97,10.1-4.06-.14,2.69.09,5.42,0,8.12Z" fill="#bca683"/><path d="M76.73,101.5c-.47,4.03-1.78,7.45-2.02,12.18-.07,1.35.05,2.71,0,4.06-.47-1.2-3.25-2.93-2.02-6.09.46-3.27-.39-6.86,0-10.15.06-.49,1.53-1.36,2.02-2.03.08.82,1.21,1.69,2.02,2.03Z" fill="#4b4740"/><path d="M72.69,142.1l2.02-8.12c-.5,4.37-1.4,5.48-2.02,8.12Z" fill="#bca683"/><path d="M24.23,633.34c2.23-.08,5.71,2.01,8.08,2.03v6.09c-.77.33-1.4,1.41-2.02,2.03-2.35-.5-5.99.6-8.08,0-13.92-3.99-6.26-9.85,2.02-10.15ZM24.22,637.42h-4.01v1.98h4.01v-1.98ZM27.26,639.43v2.03l1.01-1.01-1.01-1.01Z" fill="#808284"/><path d="M62.6,647.55c-1.3-.19-2.74.2-4.04,0-.66-.1-1.36.09-2.02,0,.63-6.97,8.51-8.59,6.06,0Z" fill="#796f60"/><path d="M60.58,470.94c-1.71,1.14-2.28,1.92-2.02,4.06-2.66.15-5.44-.27-8.08,0,.36-1.61-.53-5.21,0-6.09,5.68-9.5,4.16-10.94,4.04-24.36l2.02-56.84v81.2l2.02-83.23c1.47,28.44,3.1,56.72,2.02,85.26Z" fill="#655f56"/><path d="M64.62,479.06c-3.14,8.92,7.95,27.19-4.04,28.42,2.03-9.02-4.6-27.57,4.04-28.42Z" fill="#bca683"/><path d="M68.66,513.57c-2.62,4.83-7.96.15-10.1,0v-2.03c1.8-.58,1.4-.81,2.02-2.03,5.25-1.33,5.81,2.35,8.08,4.06Z" fill="#bca683"/><path d="M58.56,511.54v2.03c-2.61-.18-5.46-.13-8.08,0v-2.03c2.36-.43,6.14.62,8.08,0Z" fill="#90836e"/><path d="M56.54,627.25c7.63-.31,17.12,1.02,24.23,0l2.02-2.03c1.23-.29,3.17.38,4.04,0,14.37,7.11-7.96,7.84-14.14,10.15-2.02-.02-4.04.05-6.06,0-11.07-.29-23.07.08-34.33,0-2.37-.02-5.85-2.11-8.08-2.03l-2.02-6.09c11.45-2.82,22.68.48,34.33,0Z" fill="#3a362e"/><path d="M34.33,101.5c.08,3.28-1.25,8,2.02,10.15.12,1.33-.16,2.74,0,4.06.14,1.12,2,1.89,2.02,2.03.4,3.08-.68,7.6,0,10.15s1.1,3.7,2.02,6.09c5.58,14.49,14.42,8.95,28.27,8.12,0,1.35,0,2.71,0,4.06-9.41.32-13.87-3.34-12.12,8.12v2.03c-3.24.49-6.82,1.88-8.08,2.03s-2.75-.2-4.04,0v-2.03c2.65-.15,2.61-1.73,0-2.03-4.35-.5-4.49-.27-4.04,4.06-.66.05-1.38-.12-2.02,0v-6.09c0-3.38.04-6.77,0-10.15-.02-1.57,6.31-2.84-2.02-2.03-3.54-6.41-1.51-13.54-2.02-20.3-.13-1.66-.19-3.31-2.02-4.06-.97-7.08-2.98-12.25-4.04-18.27,8.27,1.07,2.05-4.64,2.02-6.09-.01-.64-.12-1.42,0-2.03.24-1.27-.35-3.11,0-4.06,6.26,2.82,3.92,10.97,4.04,16.24Z" fill="#655f56"/><path d="M36.35,142.1h2.02c.04,3.38,0,6.77,0,10.15-1.24.23-2.99-.33-4.04,0-3.3-2.58-2.75-6.93-4.04-10.15h6.06Z" fill="#f7d757"/><path d="M30.29,91.35c.03,1.45,6.25,7.16-2.02,6.09-.19-1.07-.15-2.96,0-4.06.06-.41,1.62-1.28,2.02-2.03Z" fill="#3a362e"/><path d="M34.33,119.77c-1.89-.74-1.79-2.42-2.02-4.06,1.83.75,1.89,2.4,2.02,4.06Z" fill="#796f60"/><path d="M36.35,140.07c8.33-.81,2,.46,2.02,2.03h-2.02v-2.03Z" fill="#796f60"/><path d="M74.71,156.3c-.56.91-1.01,7.46-2.02,10.15-1.31.16-2.71-.11-4.04,0,2.39-16.58-11.44,13.49-8.08-10.15,1.94-.3,4.08.23,6.04-.03.6-3.07-1.98-1.96-4.02-2-1.33-3.55,3.92-5.6,6.06-6.09.64-.15,1.38.15,2.02,0l4.04,8.12Z" fill="#655f56"/><path d="M62.6,154.27c2.04.05,4.63-1.07,4.02,2-1.96.26-4.11-.28-6.04.03-1.29.2-2.74-.19-4.04,0v-2.03c2.02.03,4.04-.05,6.06,0Z" fill="#4b4740"/><path d="M30.29,85.26c3.27-8.99,42.77-7.79,44.44-6.1.71.72-.39,16.51-.01,20.31-.49.67-1.96,1.54-2.02,2.03-10.05-3.81-28.63,6.98-36.35,2.03-.73-.47-1.28-1.5-2.02-2.03-.12-5.27,2.22-13.42-4.04-16.24Z" fill="#f1982a"/><path d="M66.64,635.37l-4.04,4.06c-7.19-.81-23.85-.77-30.29,2.03v-6.09c11.26.08,23.25-.29,34.33,0Z" fill="#796f60"/><path d="M72.69,635.37c.81,0,6.05,1.81,10.1,2.03l2.02,2.03c-4.62.76-11.37,2.8-16.15,4.06-.36-.04-.58-3.44-6.06-4.06l4.04-4.06c2.02.05,4.04-.02,6.06,0Z" fill="#bca683"/><path d="M88.85,639.43l2.02,4.06c-2.05-.09-6.79,2.84-12.12,2.03-3.32-.51-8.38-1.84-10.1-2.03,4.79-1.26,11.54-3.3,16.15-4.06,1.25-.21,2.73.06,4.04,0Z" fill="#efe194"/><path d="M82.79,637.4c5,.27,9.25-1.96,14.13-2.01.28,2.39-3.48,3.03-4.04,4.04-1.34.04-2.7-.06-4.04,0s-2.79-.21-4.04,0l-2.02-2.03Z" fill="#796f60"/><path d="M92.89,639.43c-.4.71.26,2.87,0,4.06-.66-.06-1.35.03-2.02,0l-2.02-4.06c1.34-.06,2.7.04,4.04,0Z" fill="#bca683"/><path d="M56.54,529.81c2.01-.08,4.04.08,6.06,0v4.06c-1.34.04-2.7-.05-4.04,0-4.03.15-8.09-.13-12.12,0-.75-1.86-2.39-1.86-4.04-2.03-1.85-.19-4.2-.16-6.06,0,5.31-3.91,13.84-1.79,20.19-2.03Z" fill="#4b4740"/><path d="M62.6,533.87c6.15-.17,14.04-7.01,12.12,4.06-6.06-.08-18.19,2.52-16.15-4.06,1.34-.05,2.69.04,4.04,0Z" fill="#90836e"/><path d="M46.44,533.87c-.98.03-4.84,5.97-4.04-2.03,1.65.17,3.28.17,4.04,2.03Z" fill="#808284"/><path d="M44.42,154.27v4.06c-1.28.2-2.72-.1-4.04,0-.45-4.33-.31-4.56,4.04-4.06Z" fill="#4b4740"/><path d="M80.77,627.25c.17-.02.96-1.78,2.02-2.03l-2.02,2.03Z" fill="#90836e"/><path d="M72.69,101.5c-.39,3.29.46,6.88,0,10.15-.39,2.77-1.52,5.89-2.02,10.15-24.21-24.99-32.76,27.91,0,2.03-.74,6.54-2.04,10.9-2.02,18.27-13.85.83-22.69,6.37-28.27-8.12l-2.02-6.09c-.68-2.55.4-7.07,0-10.15l-2.02-2.03c-.16-1.32.12-2.73,0-4.06-.23-2.67.16-5.44,0-8.12,7.71,4.95,26.3-5.84,36.35-2.03Z" fill="#f7d757"/><path d="M70.68,123.83c-32.76,25.88-24.21-27.02,0-2.03-.08.67.08,1.36,0,2.03Z" fill="#efe194"/><path d="M68.66,146.16v2.03c-2.14.49-7.39,2.54-6.06,6.09-2.02-.05-4.04.03-6.06,0-1.75-11.46,2.7-7.8,12.12-8.12Z" fill="#f7d757"/><rect x="20.21" y="637.42" width="4.01" height="1.98" fill="#655f56"/><polygon points="27.26 639.43 28.27 640.44 27.26 641.46 27.26 639.43" fill="#655f56"/><path d="M36.35,103.53c.16,2.68-.23,5.45,0,8.12-3.27-2.15-1.94-6.87-2.02-10.15.74.53,1.29,1.56,2.02,2.03Z" fill="#796f60"/><path d="M40.39,133.98c-.92-2.39-1.34-3.54-2.02-6.09l2.02,6.09Z" fill="#796f60"/><path d="M38.37,117.74c-.02-.14-1.88-.91-2.02-2.03l2.02,2.03Z" fill="#796f60"/><path d="M44.42,156.3v-2.03c2.61.3,2.65,1.88,0,2.03Z" fill="#3a362e"/></g></svg>