<svg xmlns="http://www.w3.org/2000/svg" viewBox="0 0 512 512">
  <defs>
    <linearGradient id="sky" x1="0" y1="0" x2="0" y2="1">
      <stop offset="0" stop-color="#4285f4"/><stop offset="1" stop-color="#1a56c4"/>
    </linearGradient>
    <linearGradient id="mtn1" x1="0" y1="0" x2="0" y2="1">
      <stop offset="0" stop-color="#25407a"/><stop offset="1" stop-color="#16294f"/>
    </linearGradient>
    <linearGradient id="mtn2" x1="0" y1="0" x2="0" y2="1">
      <stop offset="0" stop-color="#0f1f3d"/><stop offset="1" stop-color="#0a1730"/>
    </linearGradient>
  </defs>
  <rect width="512" height="512" rx="112" fill="url(#sky)"/>
  <circle cx="256" cy="176" r="54" fill="#ffe39c"/>
  <path d="M0 300 L100 190 L170 260 L260 160 L340 270 L400 210 L512 320 L512 512 L0 512 Z" fill="url(#mtn1)"/>
  <path d="M0 360 L90 290 L180 350 L270 270 L360 360 L440 300 L512 370 L512 512 L0 512 Z" fill="url(#mtn2)"/>
  <path d="M0 452 C 90 420, 160 420, 256 452 C 352 484, 422 484, 512 452 L512 512 L0 512 Z" fill="#f4f1eb"/>
  <rect x="216" y="452" width="10" height="60" fill="#dcd6c8"/>
  <rect x="286" y="452" width="10" height="60" fill="#dcd6c8"/>
</svg>
